<svg width="1676" height="629" viewBox="0 0 1676 629" fill="none" xmlns="http://www.w3.org/2000/svg">
<g clip-path="url(#clip0_710_15)">
<g opacity="0.6" filter="url(#filter0_f_710_15)">
<path d="M1029.22 506.791C1066.72 418.772 914.616 269.647 689.476 173.709C464.336 77.7718 251.419 71.3526 213.912 159.371C176.405 247.39 328.512 396.516 553.651 492.454C778.791 588.391 991.708 594.81 1029.22 506.791Z" stroke="#FE9111" stroke-miterlimit="10"/>
<path d="M984.229 571.743C1220.1 506.506 1392.18 384.434 1368.57 299.086C1344.97 213.739 1134.62 197.435 898.748 262.671C662.875 327.907 490.798 449.979 514.403 535.327C538.007 620.675 748.356 636.979 984.229 571.743Z" stroke="#0058A9" stroke-width="2" stroke-miterlimit="10"/>
<path d="M449.183 577.671C692.982 598.978 897.372 538.983 905.702 443.669C914.032 348.356 723.147 253.816 479.348 232.51C235.549 211.203 31.1583 271.198 22.8285 366.512C14.4987 461.825 205.384 556.365 449.183 577.671Z" stroke="#0058A9" stroke-width="2" stroke-miterlimit="10"/>
<path d="M1086.45 649.54C1329.51 620.988 1520.06 542.656 1512.06 474.581C1504.07 406.507 1300.55 374.468 1057.49 403.02C814.435 431.573 623.881 509.905 631.878 577.979C639.875 646.054 843.395 678.093 1086.45 649.54Z" stroke="#0058A9" stroke-opacity="0.5" stroke-width="7" stroke-miterlimit="10"/>
<path d="M536.804 623.189C682.729 608.935 796.377 549.807 790.645 491.124C784.913 432.441 661.97 396.424 516.045 410.678C370.121 424.933 256.472 484.061 262.205 542.744C267.937 601.427 390.88 637.444 536.804 623.189Z" stroke="#FE9111" stroke-width="7" stroke-miterlimit="10"/>
<path d="M998.812 709.122C1245.51 646.239 1426.35 520.104 1402.71 427.391C1379.08 334.679 1159.93 310.497 913.233 373.381C666.532 436.264 485.7 562.399 509.332 655.111C532.964 747.824 752.112 772.005 998.812 709.122Z" stroke="#FE9111" stroke-opacity="0.6" stroke-width="7" stroke-miterlimit="10"/>
<path d="M1233.35 577.045C1253.36 483.484 1063.87 363.649 810.119 309.388C556.366 255.127 334.44 286.987 314.433 380.549C294.426 474.111 483.915 593.945 737.669 648.206C991.422 702.467 1213.35 670.607 1233.35 577.045Z" stroke="#FF0000" stroke-opacity="0.7" stroke-width="4.12" stroke-miterlimit="10"/>
</g>
<path d="M1605.78 270.736C1589.57 176.441 1380.91 133.601 1139.72 175.051C898.525 216.5 716.137 326.543 732.341 420.837C748.546 515.132 957.208 557.971 1198.4 516.522C1439.59 475.073 1621.98 365.03 1605.78 270.736Z" stroke="#FF0000" stroke-opacity="0.7" stroke-miterlimit="10"/>
</g>
<defs>
<filter id="filter0_f_710_15" x="18.5658" y="93.8374" width="1500.24" height="656.776" filterUnits="userSpaceOnUse" color-interpolation-filters="sRGB">
<feFlood flood-opacity="0" result="BackgroundImageFix"/>
<feBlend mode="normal" in="SourceGraphic" in2="BackgroundImageFix" result="shape"/>
<feGaussianBlur stdDeviation="1.5" result="effect1_foregroundBlur_710_15"/>
</filter>
<clipPath id="clip0_710_15">
<rect width="1676" height="629" fill="white"/>
</clipPath>
</defs>
</svg>
