<svg width="147" height="31" viewBox="0 0 147 31" fill="none" xmlns="http://www.w3.org/2000/svg">
<g opacity="0.5">
<path d="M42.6961 9.09719V11.1153H42.7865C42.9672 10.8341 43.1981 10.553 43.4793 10.2719C43.7805 9.97068 44.1419 9.70964 44.5636 9.48875C44.9853 9.24779 45.4572 9.05703 45.9793 8.91646C46.5214 8.75582 47.1239 8.6755 47.7865 8.6755C48.8106 8.6755 49.7544 8.87631 50.6178 9.27791C51.4813 9.65944 52.2243 10.1916 52.8467 10.8743C53.4692 11.557 53.9512 12.3602 54.2925 13.2839C54.6339 14.2076 54.8046 15.2016 54.8046 16.2659C54.8046 17.3301 54.6339 18.3341 54.2925 19.2779C53.9712 20.2016 53.4994 21.0149 52.8769 21.7177C52.2745 22.4004 51.5315 22.9526 50.6479 23.3743C49.7845 23.7759 48.8006 23.9767 47.6961 23.9767C46.672 23.9767 45.7283 23.7659 44.8648 23.3442C44.0214 22.9225 43.3688 22.3502 42.907 21.6273H42.8467V30.7839H39.2323V9.09719H42.6961ZM51.1299 16.2659C51.1299 15.7036 51.0395 15.1514 50.8588 14.6092C50.6981 14.047 50.4471 13.545 50.1058 13.1032C49.7644 12.6614 49.3327 12.31 48.8106 12.049C48.2885 11.7679 47.6761 11.6273 46.9733 11.6273C46.3106 11.6273 45.7182 11.7679 45.1961 12.049C44.6741 12.3301 44.2222 12.6916 43.8407 13.1333C43.4793 13.5751 43.1981 14.0771 42.9973 14.6394C42.8166 15.2016 42.7263 15.7639 42.7263 16.3261C42.7263 16.8884 42.8166 17.4506 42.9973 18.0128C43.1981 18.555 43.4793 19.047 43.8407 19.4888C44.2222 19.9305 44.6741 20.292 45.1961 20.5731C45.7182 20.8341 46.3106 20.9647 46.9733 20.9647C47.6761 20.9647 48.2885 20.8241 48.8106 20.543C49.3327 20.2618 49.7644 19.9004 50.1058 19.4586C50.4471 19.0169 50.6981 18.5149 50.8588 17.9526C51.0395 17.3904 51.1299 16.8281 51.1299 16.2659ZM67.2689 21.7177H67.1785C66.817 22.3602 66.2347 22.8924 65.4315 23.3141C64.6283 23.7157 63.7146 23.9165 62.6905 23.9165C62.1082 23.9165 61.4958 23.8361 60.8532 23.6755C60.2307 23.5349 59.6484 23.294 59.1062 22.9526C58.5841 22.5912 58.1423 22.1293 57.7809 21.5671C57.4395 20.9847 57.2688 20.2719 57.2688 19.4285C57.2688 18.3442 57.5701 17.4807 58.1725 16.8382C58.795 16.1956 59.5881 15.7036 60.552 15.3622C61.5158 15.0209 62.5801 14.8 63.7447 14.6996C64.9295 14.5791 66.0841 14.5189 67.2086 14.5189V14.1574C67.2086 13.2538 66.8773 12.5912 66.2146 12.1695C65.5721 11.7277 64.799 11.5068 63.8954 11.5068C63.1323 11.5068 62.3994 11.6675 61.6966 11.9888C60.9937 12.31 60.4114 12.7016 59.9496 13.1635L58.0821 10.9647C58.9054 10.2016 59.8492 9.62932 60.9134 9.24779C61.9978 8.86626 63.0921 8.6755 64.1966 8.6755C65.4817 8.6755 66.5359 8.85623 67.3592 9.21767C68.2026 9.57912 68.8652 10.051 69.3472 10.6333C69.8291 11.2157 70.1604 11.8683 70.3411 12.5912C70.5419 13.3141 70.6423 14.0369 70.6423 14.7598V23.555H67.2689V21.7177ZM67.2086 16.9586H66.3954C65.813 16.9586 65.2006 16.9888 64.558 17.049C63.9154 17.0892 63.3231 17.1996 62.7809 17.3803C62.2387 17.541 61.7869 17.7819 61.4255 18.1032C61.064 18.4044 60.8833 18.8261 60.8833 19.3683C60.8833 19.7096 60.9536 20.0008 61.0941 20.2418C61.2548 20.4627 61.4556 20.6434 61.6966 20.7839C61.9375 20.9245 62.2086 21.0249 62.5098 21.0851C62.811 21.1454 63.1122 21.1755 63.4134 21.1755C64.6584 21.1755 65.6022 20.8442 66.2448 20.1815C66.8873 19.5189 67.2086 18.6153 67.2086 17.4707V16.9586ZM72.6846 9.09719H76.6906L80.7268 19.6092H80.787L84.3717 9.09719H88.1367L81.2991 26.6574C81.038 27.3201 80.7569 27.9024 80.4557 28.4044C80.1545 28.9265 79.793 29.3582 79.3713 29.6996C78.9497 30.061 78.4476 30.3321 77.8653 30.5129C77.3031 30.6936 76.6203 30.7839 75.8171 30.7839C75.5159 30.7839 75.2047 30.7639 74.8834 30.7237C74.5822 30.7036 74.2709 30.6534 73.9497 30.5731L74.2509 27.4406C74.4918 27.5209 74.7227 27.5711 74.9436 27.5912C75.1846 27.6313 75.4055 27.6514 75.6063 27.6514C75.9878 27.6514 76.3091 27.6012 76.5701 27.5008C76.8312 27.4205 77.0521 27.2799 77.2328 27.0791C77.4135 26.8984 77.5742 26.6675 77.7147 26.3863C77.8553 26.1052 78.0059 25.7739 78.1665 25.3924L78.8894 23.555L72.6846 9.09719ZM100.176 13.1032C99.8946 12.7016 99.4729 12.3703 98.9107 12.1092C98.3484 11.8281 97.7761 11.6875 97.1938 11.6875C96.5312 11.6875 95.9488 11.8281 95.4468 12.1092C94.9448 12.3703 94.5231 12.7217 94.1817 13.1635C93.8605 13.6052 93.6195 14.1072 93.4589 14.6695C93.2982 15.2116 93.2179 15.7639 93.2179 16.3261C93.2179 16.8884 93.2982 17.4506 93.4589 18.0128C93.6396 18.555 93.9006 19.047 94.242 19.4888C94.5834 19.9305 95.005 20.292 95.507 20.5731C96.0291 20.8341 96.6315 20.9647 97.3143 20.9647C97.8765 20.9647 98.4388 20.8542 99.001 20.6333C99.5633 20.4124 100.015 20.0912 100.356 19.6695L102.615 21.9586C102.013 22.6012 101.24 23.1032 100.296 23.4647C99.3725 23.806 98.3685 23.9767 97.2842 23.9767C96.2199 23.9767 95.2058 23.806 94.242 23.4647C93.2982 23.1233 92.4649 22.6213 91.742 21.9586C91.0392 21.296 90.4769 20.4928 90.0552 19.549C89.6536 18.6052 89.4528 17.5309 89.4528 16.3261C89.4528 15.1614 89.6536 14.1072 90.0552 13.1635C90.4769 12.2197 91.0392 11.4165 91.742 10.7538C92.4448 10.0912 93.2581 9.57912 94.1817 9.21767C95.1255 8.85623 96.1295 8.6755 97.1938 8.6755C98.2581 8.6755 99.2822 8.87631 100.266 9.27791C101.27 9.67952 102.063 10.2317 102.646 10.9345L100.176 13.1032ZM113.979 21.7177H113.889C113.527 22.3602 112.945 22.8924 112.142 23.3141C111.339 23.7157 110.425 23.9165 109.401 23.9165C108.819 23.9165 108.206 23.8361 107.564 23.6755C106.941 23.5349 106.359 23.294 105.817 22.9526C105.295 22.5912 104.853 22.1293 104.491 21.5671C104.15 20.9847 103.979 20.2719 103.979 19.4285C103.979 18.3442 104.28 17.4807 104.883 16.8382C105.505 16.1956 106.299 15.7036 107.262 15.3622C108.226 15.0209 109.291 14.8 110.455 14.6996C111.64 14.5791 112.795 14.5189 113.919 14.5189V14.1574C113.919 13.2538 113.588 12.5912 112.925 12.1695C112.282 11.7277 111.509 11.5068 110.606 11.5068C109.843 11.5068 109.11 11.6675 108.407 11.9888C107.704 12.31 107.122 12.7016 106.66 13.1635L104.793 10.9647C105.616 10.2016 106.56 9.62932 107.624 9.24779C108.708 8.86626 109.803 8.6755 110.907 8.6755C112.192 8.6755 113.246 8.85623 114.07 9.21767C114.913 9.57912 115.576 10.051 116.058 10.6333C116.54 11.2157 116.871 11.8683 117.052 12.5912C117.252 13.3141 117.353 14.0369 117.353 14.7598V23.555H113.979V21.7177ZM113.919 16.9586H113.106C112.523 16.9586 111.911 16.9888 111.268 17.049C110.626 17.0892 110.033 17.1996 109.491 17.3803C108.949 17.541 108.497 17.7819 108.136 18.1032C107.774 18.4044 107.594 18.8261 107.594 19.3683C107.594 19.7096 107.664 20.0008 107.805 20.2418C107.965 20.4627 108.166 20.6434 108.407 20.7839C108.648 20.9245 108.919 21.0249 109.22 21.0851C109.521 21.1454 109.823 21.1755 110.124 21.1755C111.369 21.1755 112.313 20.8442 112.955 20.1815C113.598 19.5189 113.919 18.6153 113.919 17.4707V16.9586ZM121.564 9.09719H125.028V11.5068H125.088C125.489 10.6635 126.052 9.98072 126.775 9.45863C127.498 8.93655 128.341 8.6755 129.305 8.6755C129.445 8.6755 129.596 8.68554 129.757 8.70562C129.917 8.70562 130.058 8.7257 130.178 8.76586V12.0791C129.937 12.0189 129.726 11.9787 129.546 11.9586C129.385 11.9386 129.224 11.9285 129.064 11.9285C128.24 11.9285 127.578 12.0791 127.076 12.3803C126.574 12.6815 126.182 13.043 125.901 13.4647C125.62 13.8863 125.429 14.3181 125.329 14.7598C125.228 15.2016 125.178 15.553 125.178 15.8141V23.555H121.564V9.09719ZM146.704 23.555H143.271V21.3863H143.21C142.708 22.2297 142.006 22.8723 141.102 23.3141C140.218 23.7558 139.265 23.9767 138.24 23.9767C137.136 23.9767 136.142 23.7759 135.259 23.3743C134.395 22.9526 133.652 22.4004 133.03 21.7177C132.427 21.0149 131.955 20.2016 131.614 19.2779C131.293 18.3341 131.132 17.3301 131.132 16.2659C131.132 15.2016 131.303 14.2076 131.644 13.2839C131.985 12.3602 132.467 11.557 133.09 10.8743C133.712 10.1916 134.455 9.65944 135.319 9.27791C136.182 8.87631 137.126 8.6755 138.15 8.6755C138.813 8.6755 139.405 8.75582 139.927 8.91646C140.449 9.05703 140.901 9.23775 141.283 9.45863C141.684 9.67952 142.026 9.92048 142.307 10.1815C142.588 10.4426 142.819 10.6936 143 10.9345H143.09V0.783936H146.704V23.555ZM134.807 16.2659C134.807 16.8281 134.887 17.3904 135.048 17.9526C135.228 18.5149 135.489 19.0169 135.831 19.4586C136.172 19.9004 136.604 20.2618 137.126 20.543C137.648 20.8241 138.261 20.9647 138.963 20.9647C139.626 20.9647 140.218 20.8341 140.74 20.5731C141.263 20.292 141.704 19.9305 142.066 19.4888C142.447 19.047 142.728 18.555 142.909 18.0128C143.11 17.4506 143.21 16.8884 143.21 16.3261C143.21 15.7639 143.11 15.2016 142.909 14.6394C142.728 14.0771 142.447 13.5751 142.066 13.1333C141.704 12.6916 141.263 12.3301 140.74 12.049C140.218 11.7679 139.626 11.6273 138.963 11.6273C138.261 11.6273 137.648 11.7679 137.126 12.049C136.604 12.31 136.172 12.6614 135.831 13.1032C135.489 13.545 135.228 14.047 135.048 14.6092C134.887 15.1514 134.807 15.7036 134.807 16.2659Z" fill="#0A0A0A"/>
<path d="M13.4133 3.61671C14.7203 2.30973 16.8393 2.30973 18.1463 3.61671L24.3925 9.86294C25.7102 11.1806 24.777 13.4337 22.9134 13.4337H15.7798H8.64612C6.78258 13.4337 5.84938 11.1806 7.16704 9.86294L13.4133 3.61671Z" fill="#0A0A0A"/>
<path d="M12.166 26.1223C11.1859 27.1025 9.59658 27.1025 8.61632 26.1223L2.3701 19.8761C1.57948 19.0855 2.13943 17.7336 3.25754 17.7336H10.3912H17.5249C18.6429 17.7336 19.2029 19.0855 18.4123 19.8761L12.166 26.1223Z" stroke="#0A0A0A" stroke-width="2"/>
</g>
</svg>
