<svg width="141" height="32" viewBox="0 0 141 32" fill="none" xmlns="http://www.w3.org/2000/svg">
<g clip-path="url(#clip0_496_339)">
<path d="M124.897 0H15.2935C6.84714 0 0 6.87691 0 15.36V16.64C0 25.1231 6.84714 32 15.2935 32H124.897C133.343 32 140.19 25.1231 140.19 16.64V15.36C140.19 6.87691 133.343 0 124.897 0Z" fill="url(#paint0_radial_496_339)"/>
<path d="M44.7159 11.9807V13.5244H44.7847C44.9224 13.3094 45.0983 13.0943 45.3124 12.8793C45.5418 12.6489 45.8171 12.4492 46.1382 12.2803C46.4594 12.0959 46.8188 11.95 47.2164 11.8425C47.6293 11.7196 48.0881 11.6582 48.5928 11.6582C49.3728 11.6582 50.0916 11.8118 50.7492 12.119C51.4068 12.4108 51.9727 12.8179 52.4468 13.3401C52.9209 13.8623 53.2879 14.4767 53.5479 15.1833C53.8079 15.8899 53.9379 16.6502 53.9379 17.4643C53.9379 18.2783 53.8079 19.0463 53.5479 19.7683C53.3032 20.4748 52.9438 21.0969 52.4697 21.6345C52.0109 22.1567 51.4451 22.5791 50.7721 22.9017C50.1145 23.2089 49.3651 23.3625 48.524 23.3625C47.744 23.3625 47.0252 23.2012 46.3676 22.8787C45.7253 22.5561 45.2283 22.1183 44.8765 21.5654H44.8306V28.5695H42.0778V11.9807H44.7159ZM51.1392 17.4643C51.1392 17.0342 51.0704 16.6118 50.9327 16.1971C50.8104 15.767 50.6192 15.383 50.3592 15.0451C50.0992 14.7071 49.7704 14.4383 49.3728 14.2387C48.9752 14.0236 48.5087 13.9161 47.9734 13.9161C47.4687 13.9161 47.0176 14.0236 46.62 14.2387C46.2223 14.4537 45.8782 14.7302 45.5876 15.0681C45.3124 15.406 45.0983 15.79 44.9453 16.2201C44.8077 16.6502 44.7389 17.0803 44.7389 17.5103C44.7389 17.9404 44.8077 18.3705 44.9453 18.8006C45.0983 19.2153 45.3124 19.5916 45.5876 19.9295C45.8782 20.2675 46.2223 20.5439 46.62 20.759C47.0176 20.9587 47.4687 21.0585 47.9734 21.0585C48.5087 21.0585 48.9752 20.951 49.3728 20.7359C49.7704 20.5209 50.0992 20.2444 50.3592 19.9065C50.6192 19.5686 50.8104 19.1846 50.9327 18.7545C51.0704 18.3244 51.1392 17.8943 51.1392 17.4643ZM63.4309 21.6345H63.3621C63.0868 22.126 62.6433 22.5331 62.0315 22.8556C61.4198 23.1628 60.724 23.3164 59.944 23.3164C59.5005 23.3164 59.034 23.255 58.5446 23.1321C58.0705 23.0246 57.627 22.8403 57.2141 22.5791C56.8165 22.3027 56.48 21.9494 56.2047 21.5193C55.9447 21.0739 55.8147 20.5286 55.8147 19.8835C55.8147 19.054 56.0441 18.3935 56.5029 17.902C56.977 17.4105 57.5811 17.0342 58.3152 16.7731C59.0493 16.5119 59.8599 16.343 60.7469 16.2662C61.6492 16.174 62.5286 16.1279 63.385 16.1279V15.8515C63.385 15.1603 63.1327 14.6534 62.628 14.3308C62.1386 13.9929 61.5498 13.8239 60.8616 13.8239C60.2804 13.8239 59.7222 13.9468 59.187 14.1926C58.6517 14.4383 58.2082 14.7379 57.8564 15.0911L56.4341 13.4092C57.0612 12.8255 57.78 12.3878 58.5905 12.0959C59.4164 11.8041 60.2498 11.6582 61.091 11.6582C62.0698 11.6582 62.8727 11.7964 63.4997 12.0729C64.1422 12.3494 64.6469 12.7103 65.014 13.1558C65.381 13.6012 65.6334 14.1004 65.771 14.6534C65.9239 15.2063 66.0004 15.7593 66.0004 16.3123V23.0399H63.4309V21.6345ZM63.385 17.9942H62.7656C62.3221 17.9942 61.8557 18.0172 61.3663 18.0633C60.8769 18.094 60.4257 18.1785 60.0128 18.3167C59.5999 18.4396 59.2558 18.6239 58.9805 18.8697C58.7052 19.1001 58.5676 19.4227 58.5676 19.8374C58.5676 20.0985 58.6211 20.3212 58.7281 20.5055C58.8505 20.6745 59.0034 20.8127 59.187 20.9203C59.3705 21.0278 59.5769 21.1046 59.8063 21.1507C60.0357 21.1967 60.2651 21.2198 60.4945 21.2198C61.4427 21.2198 62.1615 20.9663 62.6509 20.4595C63.1403 19.9526 63.385 19.2614 63.385 18.3859V17.9942ZM67.5559 11.9807H70.6069L73.6809 20.0217H73.7268L76.4567 11.9807H79.3242L74.1168 25.4131C73.918 25.9199 73.7039 26.3654 73.4745 26.7494C73.2451 27.1487 72.9698 27.479 72.6486 27.7401C72.3275 28.0166 71.9451 28.2239 71.5016 28.3622C71.0734 28.5004 70.5534 28.5695 69.9417 28.5695C69.7123 28.5695 69.4752 28.5542 69.2305 28.5235C69.0011 28.5081 68.7641 28.4697 68.5194 28.4083L68.7488 26.0121C68.9323 26.0735 69.1082 26.1119 69.2764 26.1273C69.4599 26.158 69.6282 26.1734 69.7811 26.1734C70.0717 26.1734 70.3164 26.135 70.5152 26.0582C70.714 25.9967 70.8822 25.8892 71.0199 25.7356C71.1575 25.5974 71.2798 25.4207 71.3869 25.2057C71.494 24.9907 71.6087 24.7372 71.731 24.4454L72.2816 23.0399L67.5559 11.9807ZM88.4933 15.0451C88.2792 14.7379 87.9581 14.4844 87.5298 14.2847C87.1016 14.0697 86.6658 13.9622 86.2222 13.9622C85.7176 13.9622 85.274 14.0697 84.8917 14.2847C84.5094 14.4844 84.1882 14.7532 83.9282 15.0911C83.6835 15.4291 83.5 15.8131 83.3776 16.2431C83.2553 16.6579 83.1941 17.0803 83.1941 17.5103C83.1941 17.9404 83.2553 18.3705 83.3776 18.8006C83.5153 19.2153 83.7141 19.5916 83.9741 19.9295C84.2341 20.2675 84.5553 20.5439 84.9376 20.759C85.3352 20.9587 85.794 21.0585 86.314 21.0585C86.7422 21.0585 87.1704 20.974 87.5987 20.8051C88.0269 20.6361 88.371 20.3903 88.631 20.0678L90.3515 21.8188C89.8927 22.3103 89.3039 22.6943 88.5851 22.9708C87.8816 23.2319 87.1169 23.3625 86.2911 23.3625C85.4805 23.3625 84.7082 23.2319 83.9741 22.9708C83.2553 22.7097 82.6206 22.3257 82.0701 21.8188C81.5348 21.3119 81.1066 20.6975 80.7854 19.9756C80.4795 19.2537 80.3266 18.4319 80.3266 17.5103C80.3266 16.6195 80.4795 15.8131 80.7854 15.0911C81.1066 14.3692 81.5348 13.7548 82.0701 13.2479C82.6053 12.7411 83.2247 12.3494 83.9282 12.0729C84.647 11.7964 85.4117 11.6582 86.2222 11.6582C87.0328 11.6582 87.8128 11.8118 88.5621 12.119C89.3268 12.4262 89.9309 12.8486 90.3744 13.3862L88.4933 15.0451ZM99.0063 21.6345H98.9375C98.6622 22.126 98.2187 22.5331 97.607 22.8556C96.9952 23.1628 96.2994 23.3164 95.5194 23.3164C95.0759 23.3164 94.6095 23.255 94.1201 23.1321C93.646 23.0246 93.2024 22.8403 92.7895 22.5791C92.3919 22.3027 92.0554 21.9494 91.7802 21.5193C91.5202 21.0739 91.3902 20.5286 91.3902 19.8835C91.3902 19.054 91.6196 18.3935 92.0784 17.902C92.5525 17.4105 93.1566 17.0342 93.8907 16.7731C94.6247 16.5119 95.4353 16.343 96.3223 16.2662C97.2246 16.174 98.104 16.1279 98.9605 16.1279V15.8515C98.9605 15.1603 98.7081 14.6534 98.2034 14.3308C97.714 13.9929 97.1252 13.8239 96.437 13.8239C95.8559 13.8239 95.2977 13.9468 94.7624 14.1926C94.2271 14.4383 93.7836 14.7379 93.4319 15.0911L92.0096 13.4092C92.6366 12.8255 93.3554 12.3878 94.1659 12.0959C94.9918 11.8041 95.8253 11.6582 96.6664 11.6582C97.6452 11.6582 98.4481 11.7964 99.0752 12.0729C99.7175 12.3494 100.222 12.7103 100.589 13.1558C100.956 13.6012 101.209 14.1004 101.346 14.6534C101.499 15.2063 101.576 15.7593 101.576 16.3123V23.0399H99.0063V21.6345ZM98.9605 17.9942H98.3411C97.8976 17.9942 97.4311 18.0172 96.9417 18.0633C96.4523 18.094 96.0012 18.1785 95.5882 18.3167C95.1753 18.4396 94.8312 18.6239 94.5559 18.8697C94.2806 19.1001 94.143 19.4227 94.143 19.8374C94.143 20.0985 94.1965 20.3212 94.3036 20.5055C94.4259 20.6745 94.5789 20.8127 94.7624 20.9203C94.9459 21.0278 95.1524 21.1046 95.3818 21.1507C95.6112 21.1967 95.8406 21.2198 96.07 21.2198C97.0182 21.2198 97.737 20.9663 98.2264 20.4595C98.7158 19.9526 98.9605 19.2614 98.9605 18.3859V17.9942ZM104.783 11.9807H107.421V13.8239H107.467C107.773 13.1788 108.201 12.6566 108.751 12.2572C109.302 11.8579 109.944 11.6582 110.678 11.6582C110.786 11.6582 110.9 11.6659 111.023 11.6812C111.145 11.6812 111.252 11.6966 111.344 11.7273V14.2617C111.16 14.2156 111 14.1849 110.862 14.1695C110.74 14.1542 110.617 14.1465 110.495 14.1465C109.868 14.1465 109.363 14.2617 108.981 14.4921C108.599 14.7225 108.3 14.999 108.086 15.3215C107.872 15.6441 107.727 15.9743 107.65 16.3123C107.574 16.6502 107.536 16.919 107.536 17.1187V23.0399H104.783V11.9807ZM123.93 23.0399H121.315V21.3811H121.269C120.887 22.0262 120.352 22.5177 119.663 22.8556C118.99 23.1935 118.264 23.3625 117.484 23.3625C116.643 23.3625 115.886 23.2089 115.213 22.9017C114.555 22.5791 113.99 22.1567 113.515 21.6345C113.057 21.0969 112.697 20.4748 112.437 19.7683C112.193 19.0463 112.07 18.2783 112.07 17.4643C112.07 16.6502 112.2 15.8899 112.46 15.1833C112.72 14.4767 113.087 13.8623 113.561 13.3401C114.035 12.8179 114.601 12.4108 115.259 12.119C115.916 11.8118 116.635 11.6582 117.415 11.6582C117.92 11.6582 118.371 11.7196 118.769 11.8425C119.166 11.95 119.51 12.0883 119.801 12.2572C120.107 12.4262 120.367 12.6105 120.581 12.8102C120.795 13.0099 120.971 13.2019 121.109 13.3862H121.177V5.6217H123.93V23.0399ZM114.869 17.4643C114.869 17.8943 114.93 18.3244 115.052 18.7545C115.19 19.1846 115.389 19.5686 115.649 19.9065C115.909 20.2444 116.238 20.5209 116.635 20.7359C117.033 20.951 117.499 21.0585 118.035 21.0585C118.539 21.0585 118.99 20.9587 119.388 20.759C119.786 20.5439 120.122 20.2675 120.397 19.9295C120.688 19.5916 120.902 19.2153 121.04 18.8006C121.193 18.3705 121.269 17.9404 121.269 17.5103C121.269 17.0803 121.193 16.6502 121.04 16.2201C120.902 15.79 120.688 15.406 120.397 15.0681C120.122 14.7302 119.786 14.4537 119.388 14.2387C118.99 14.0236 118.539 13.9161 118.035 13.9161C117.499 13.9161 117.033 14.0236 116.635 14.2387C116.238 14.4383 115.909 14.7071 115.649 15.0451C115.389 15.383 115.19 15.767 115.052 16.1971C114.93 16.6118 114.869 17.0342 114.869 17.4643Z" fill="white"/>
<path d="M22.4136 7.78863C23.409 6.78888 25.0229 6.78888 26.0183 7.78863L30.7756 12.5665C31.7791 13.5745 31.0684 15.2979 29.6491 15.2979H24.216H18.7828C17.3635 15.2979 16.6528 13.5745 17.6564 12.5665L22.4136 7.78863Z" fill="white"/>
<path d="M18.7602 25.0036L14.0029 20.2257C13.4008 19.621 13.8272 18.5869 14.6788 18.5869H20.1119H25.5451C26.3966 18.5869 26.8231 19.621 26.2209 20.2257L21.4637 25.0036C20.7172 25.7534 19.5067 25.7534 18.7602 25.0036Z" stroke="white"/>
</g>
<defs>
<radialGradient id="paint0_radial_496_339" cx="0" cy="0" r="1" gradientUnits="userSpaceOnUse" gradientTransform="rotate(24.4294) scale(153.975 679.433)">
<stop stop-color="#505BDF"/>
<stop offset="1" stop-color="#8F92E8"/>
</radialGradient>
<clipPath id="clip0_496_339">
<rect width="140.19" height="32" fill="white"/>
</clipPath>
</defs>
</svg>
