<svg width="47" height="34" viewBox="0 0 47 34" fill="none" xmlns="http://www.w3.org/2000/svg">
<g opacity="0.3">
<path d="M0.16802 32.82C13.1056 35.8671 22.3467 28.2494 22.1787 14.6223C22.1787 6.15818 17.3061 0.487244 10.2492 0.487244C4.45254 0.487244 0 4.46536 0 9.88238C0 17.4154 8.82106 22.0707 18.3982 17.754C17.4741 27.2338 10.5013 31.9736 1.00812 29.6037L0.16802 32.82Z" fill="#505BDF"/>
<path d="M24.9871 32.82C37.9247 35.8671 47.1658 28.2494 46.9977 14.6223C46.9977 6.15818 42.1252 0.487244 35.0683 0.487244C29.2716 0.487244 24.8191 4.46536 24.8191 9.88238C24.8191 17.4154 33.6401 22.0707 43.2173 17.754C42.2932 27.2338 35.3203 31.9736 25.8272 29.6037L24.9871 32.82Z" fill="#505BDF"/>
</g>
</svg>
